<svg viewBox="0 0 24 25" fill="none" xmlns="http://www.w3.org/2000/svg" width="24" height="24" font-size="24" color="currentColor"><path d="M7 12.5h2v2H7v-2ZM7 16.5h2v2H7v-2ZM13 12.5h-2v2h2v-2ZM11 16.5h2v2h-2v-2ZM17 12.5h-2v2h2v-2ZM15 16.5h2v2h-2v-2Z" fill="currentColor"/><path fill-rule="evenodd" clip-rule="evenodd" d="M19 22.5H5c-1.103 0-2-.897-2-2v-14c0-1.103.897-2 2-2h2v-2h2v2h6v-2h2v2h2c1.103 0 2 .897 2 2v14c0 1.103-.897 2-2 2Zm0-14v-2H5v2h14Zm0 2 .001 10H5v-10h14Z" fill="currentColor"/></svg>