<svg viewBox="0 0 24 24" fill="none" xmlns="http://www.w3.org/2000/svg"><path d="m10.806 11.113-1.799-.274-.804-1.707a.223.223 0 0 0-.407 0l-.803 1.707-1.8.274a.223.223 0 0 0-.129.069.244.244 0 0 0 .005.336l1.3 1.329-.307 1.876a.247.247 0 0 0 .014.13.236.236 0 0 0 .077.102.22.22 0 0 0 .238.018L8 14.087l1.609.886a.216.216 0 0 0 .144.023.236.236 0 0 0 .185-.273l-.308-1.877 1.301-1.328a.24.24 0 0 0 .066-.136.235.235 0 0 0-.19-.27Z" stroke="currentColor" stroke-width="1.5"/><rect x="1.875" y="5.875" width="20.25" height="13.25" rx="2.125" stroke="currentColor" stroke-width="1.75"/><path d="M14 11h5M14 14h3" stroke="currentColor" stroke-width="1.5" stroke-linecap="round"/></svg>