<svg viewBox="0 0 24 24" fill="none" xmlns="http://www.w3.org/2000/svg" width="20px" height="20px" font-size="20px"><path d="M19.709 6.502H4.29A2.293 2.293 0 0 0 2 8.792v8.75a2.293 2.293 0 0 0 2.291 2.292h15.417A2.293 2.293 0 0 0 22 17.542v-8.75a2.293 2.293 0 0 0-2.291-2.29Zm-12.5 3.75H5.125a.625.625 0 1 1 0-1.25h2.084a.625.625 0 1 1 0 1.25ZM12 16.084a2.92 2.92 0 0 1-2.916-2.917A2.92 2.92 0 0 1 12 10.252a2.92 2.92 0 0 1 2.916 2.916A2.919 2.919 0 0 1 12 16.084Zm6.875 1.25h-2.084a.625.625 0 1 1 0-1.25h2.084a.625.625 0 1 1 0 1.25ZM19.709 5.667H4.29a.834.834 0 0 1 0-1.667h15.417a.834.834 0 0 1 0 1.667Z" fill="currentColor"/></svg>