<svg width="24" height="24" fill="none" xmlns="http://www.w3.org/2000/svg" font-size="24" class="jss217" color="currentColor"><path d="M19.08 4.93A9.972 9.972 0 0 0 12 2a9.928 9.928 0 0 0-7.07 2.93A9.947 9.947 0 0 0 2 12a9.947 9.947 0 0 0 2.93 7.07A9.947 9.947 0 0 0 12 22a9.947 9.947 0 0 0 7.07-2.93A9.947 9.947 0 0 0 22 12a9.937 9.937 0 0 0-2.92-7.07ZM12 11.38a2.817 2.817 0 0 1 2.81 2.81c0 1.285-.86 2.374-2.048 2.701a.187.187 0 0 0-.141.185v.523c0 .338-.261.621-.6.643a.622.622 0 0 1-.653-.621v-.545a.187.187 0 0 0-.141-.185 2.83 2.83 0 0 1-2.048-2.69c0-.338.261-.632.61-.643a.626.626 0 0 1 .642.62 1.56 1.56 0 0 0 1.678 1.558 1.567 1.567 0 0 0 1.449-1.448A1.567 1.567 0 0 0 12 12.61c-1.547.022-2.81-1.242-2.81-2.8 0-1.274.871-2.363 2.048-2.701a.2.2 0 0 0 .141-.185V6.39c0-.338.261-.62.6-.643a.622.622 0 0 1 .653.621v.545c0 .087.054.163.141.185a2.83 2.83 0 0 1 2.048 2.69.637.637 0 0 1-.61.643.626.626 0 0 1-.642-.62 1.56 1.56 0 0 0-1.678-1.558 1.576 1.576 0 0 0-1.449 1.449A1.567 1.567 0 0 0 12 11.379Z" fill="currentColor"/></svg>